# xmcd
#
# Track frame offsets: 
#        300
#        12552
#        25011
#        37683
#        49248
#        62688
#        76410
#        84042
#        94797
#        107781
#        119673
#        128595
#        141540
#        153966
#        165651
#        177309
#        189273
#        202380
#        215220
#        228201
#        238338
#        249369
#        262611
#        273441
#        286611
#        298737
#
# Disc length: 4137 seconds
#
# Revision: 1
# Processed by: cddbd v1.5.2PL0 Copyright (c) Steve Scherf et al.
# Submitted via: ExactAudioCopy v1.0b1
#
DISCID=6f10251a
DTITLE=Various Artist - Fine Gals, Fast Women and Wailin' Daddies - Disc 1
DYEAR=2004
DGENRE=R&B
TTITLE0=Jimmy Witherspoon - Real Ugly Woman
TTITLE1=Mabel Scott - Wailin' Daddy
TTITLE2=Ray Charles - The Snow Is Falling
TTITLE3=Little Esther - Hound Dog
TTITLE4=Milt Trenier and His Solid Six - Flip Our Wigs
TTITLE5=Charles Brown - Hard Times
TTITLE6=Big Mama Thornton - I Smell A Rat
TTITLE7=Roy Hawkins - Albania
TTITLE8=Jimmy Witherspoon - I'll Be Right On Down
TTITLE9=Little Willie Littlefield - Kansas City (K C Loving)
TTITLE10=The Du Droppers - Bam Balam
TTITLE11=Little Willie Littlefield - Lump In My Throat
TTITLE12=Little Esther and Little Willie Littlefield - Last Laugh Blues
TTITLE13=Little Esther - Mainliner
TTITLE14=Big Mama Thornton - Rockabye Baby
TTITLE15=Jimmy Witherspoon - Oh Mother, Dear Mother
TTITLE16=Amos Milburn - Flying Home
TTITLE17=Little Willie Littlefield - Striking On You, Baby
TTITLE18=Milt Trenier and His Solid Six - Squeeze Me
TTITLE19=Big Mama Thornton - I've Searched The World Over
TTITLE20=Little Esther and Bobby Nunn - You Took My Love Too Fast
TTITLE21=Jimmy Witherspoon - The Last Mile
TTITLE22=Jimmy Witherspoon - It
TTITLE23=Little Esther - Hollerin' And Screamin'
TTITLE24=Linda Hopkins - Is This Goodbye
TTITLE25=Linda Hopkins - Get Off My Wagon
EXTD=
EXTT0=
EXTT1=
EXTT2=
EXTT3=
EXTT4=
EXTT5=
EXTT6=
EXTT7=
EXTT8=
EXTT9=
EXTT10=
EXTT11=
EXTT12=
EXTT13=
EXTT14=
EXTT15=
EXTT16=
EXTT17=
EXTT18=
EXTT19=
EXTT20=
EXTT21=
EXTT22=
EXTT23=
EXTT24=
EXTT25=
PLAYORDER=
